<svg xmlns="http://www.w3.org/2000/svg" width="18.099" height="18.057" viewBox="0 0 18.099 18.057">
  <path id="bottom_bar_my_page" d="M9.05.641a8.72,8.72,0,0,1,6.4,2.649A8.7,8.7,0,0,1,18.1,9.669a8.7,8.7,0,0,1-2.649,6.379A8.72,8.72,0,0,1,9.05,18.7a8.72,8.72,0,0,1-6.4-2.649A8.7,8.7,0,0,1,0,9.669,8.693,8.693,0,0,1,2.649,3.29,8.722,8.722,0,0,1,9.05.641Zm0,2.713a2.667,2.667,0,0,0-1.929.784,2.563,2.563,0,0,0-.805,1.907,2.632,2.632,0,0,0,.805,1.929,2.629,2.629,0,0,0,1.929.805,2.564,2.564,0,0,0,1.907-.805,2.668,2.668,0,0,0,.784-1.929A2.678,2.678,0,0,0,9.05,3.353Zm0,12.843a6.293,6.293,0,0,0,3.094-.784,6.464,6.464,0,0,0,2.31-2.14,1.838,1.838,0,0,0-1-1.5,7.4,7.4,0,0,0-2.2-.975,8.7,8.7,0,0,0-2.2-.318,8.756,8.756,0,0,0-2.2.318,7.364,7.364,0,0,0-2.2.975,1.97,1.97,0,0,0-1.04,1.5A6.493,6.493,0,0,0,9.049,16.2Z" transform="translate(0 -0.641)" fill="#232639"/>
</svg>
