<svg xmlns="http://www.w3.org/2000/svg" width="24.501" height="18.004" viewBox="0 0 24.501 18.004">
  <g id="bottom_bar_goal" transform="translate(-103.25 -745.462)">
    <path id="__TEMP__SVG__" d="M24.343,11.942a4.08,4.08,0,0,1-1.4-.876,15.036,15.036,0,0,1-2.3-3.365l2.37-3.678a.625.625,0,0,0-.378-.96,6.8,6.8,0,0,0-3.587.5,8.4,8.4,0,0,0-2.189,1.391,12.2,12.2,0,0,0-3.986-1.161C8.121,3.355,3.555,6.4,3.044,10.642l-.1-.049A1.923,1.923,0,0,1,1.9,9.453,1.384,1.384,0,0,1,2,8.375a.92.92,0,0,1,.329-.334.749.749,0,0,0,.255-1.033.759.759,0,0,0-1.038-.254,2.4,2.4,0,0,0-.86.869A2.878,2.878,0,0,0,.457,9.877a3.482,3.482,0,0,0,1.8,2.086l.7.375a12.89,12.89,0,0,0,1.4,5.076,15.979,15.979,0,0,0,2.1,3.33.7.7,0,0,0,.559.264H9.533a.364.364,0,0,0,.276-.189.36.36,0,0,0,0-.333l-.154-.542a7.615,7.615,0,0,1-.231-.82c.636.111,1.454.216,2.007.264a14.113,14.113,0,0,0,2.182,0c.273.487.552.925.8,1.286a.651.651,0,0,0,.538.285h2.175a.455.455,0,0,0,.363-.188.45.45,0,0,0,.063-.4c-.161-.515-.371-1.217-.5-1.648A11.147,11.147,0,0,0,19.686,17.5c.112-.076.224-.181.336-.271a9.66,9.66,0,0,1-1.692-.7.555.555,0,0,1-.238-.751.561.561,0,0,1,.755-.236,8.171,8.171,0,0,0,2.224.765,9.36,9.36,0,0,0,1.874.083.7.7,0,0,0,.629-.459l1.21-3.087a.694.694,0,0,0-.441-.9ZM9.512,6.88a.6.6,0,0,1-.21.035.591.591,0,0,1-.21-1.14,8.724,8.724,0,0,1,4.678-.382.591.591,0,1,1-.21,1.161,7.557,7.557,0,0,0-4.049.327Zm8.755,4.255a.71.71,0,1,1,.007.007Z" transform="translate(102.924 742.458)" fill="#232639"/>
  </g>
</svg>
