<svg xmlns="http://www.w3.org/2000/svg" width="22.951" height="18.033" viewBox="0 0 22.951 18.033">
  <g id="bottom_bar_transaction" transform="translate(-1.857 -4.643)">
    <path id="Path_21" data-name="Path 21" d="M1.857,20.773a2.869,2.869,0,0,0,2.869,2.869H21.939a2.869,2.869,0,0,0,2.869-2.869v-7.89H1.857Zm3.381-3.894a1.537,1.537,0,0,1,1.537-1.537H9.234a1.537,1.537,0,0,1,1.537,1.537V17.9A1.537,1.537,0,0,1,9.234,19.44H6.775A1.537,1.537,0,0,1,5.238,17.9Z" transform="translate(0 -0.966)" fill="#232639"/>
    <path id="Path_22" data-name="Path 22" d="M21.939,4.643H4.726A2.869,2.869,0,0,0,1.857,7.512V8.844h22.95V7.512a2.869,2.869,0,0,0-2.869-2.869Z" transform="translate(0 0)" fill="#232639"/>
  </g>
</svg>
