<svg xmlns="http://www.w3.org/2000/svg" width="17.966" height="17.966" viewBox="0 0 17.966 17.966">
  <path id="bottom_bar_statistic" d="M15.731,17.966H2.256a2.165,2.165,0,0,1-1.588-.658A2.16,2.16,0,0,1,.011,15.72V2.246A2.165,2.165,0,0,1,.669.658,2.161,2.161,0,0,1,2.257,0H15.731a2.165,2.165,0,0,1,1.588.658,2.161,2.161,0,0,1,.658,1.588V15.72a2.246,2.246,0,0,1-2.246,2.246ZM5.625,12.913a.57.57,0,0,0-.561-.561H3.941a.57.57,0,0,0-.561.561v2.246a.57.57,0,0,0,.561.561H5.064a.57.57,0,0,0,.561-.561Zm4.491-4.491a.57.57,0,0,0-.561-.561H8.432a.57.57,0,0,0-.561.561v6.737a.57.57,0,0,0,.561.561H9.555a.57.57,0,0,0,.561-.561V8.422Zm4.491-5.614a.57.57,0,0,0-.561-.561H12.923a.57.57,0,0,0-.561.561V15.159a.57.57,0,0,0,.561.561h1.123a.57.57,0,0,0,.561-.561V2.807Z" transform="translate(-0.011)" fill="#232639"/>
</svg>
