<svg xmlns="http://www.w3.org/2000/svg" xmlns:xlink="http://www.w3.org/1999/xlink" width="375" height="812" viewBox="0 0 375 812">
  <defs>
    <clipPath id="clip-Common_Screen">
      <rect width="375" height="812"/>
    </clipPath>
  </defs>
  <g id="Common_Screen" data-name="Common Screen" clip-path="url(#clip-Common_Screen)">
    <rect width="375" height="812" fill="#f5f5f5"/>
    <g id="Status_Bars_-_iPhone_-_Light" data-name="Status Bars - iPhone - Light">
      <g id="Status_Bar" data-name="Status Bar" transform="translate(654 2332)">
        <rect id="BG" width="375" height="44" transform="translate(-654 -2332)" fill="none"/>
        <g id="Status_Bar-2" data-name="Status Bar" transform="translate(-654 -2332)">
          <rect id="Bars_Status_Bars_iPhone_Light_background" data-name="Bars/Status Bars/iPhone/Light background" width="375" height="44" fill="none"/>
          <g id="Battery" transform="translate(336 17)">
            <g id="Border" transform="translate(0.333 0.333)" fill="none" stroke="#000" stroke-miterlimit="10" stroke-width="1" opacity="0.35">
              <rect width="22" height="11.333" rx="2.667" stroke="none"/>
              <rect x="0.5" y="0.5" width="21" height="10.333" rx="2.167" fill="none"/>
            </g>
            <path id="Cap" d="M0,0V4A2.17,2.17,0,0,0,1.328,2,2.17,2.17,0,0,0,0,0" transform="translate(23.333 4)" opacity="0.4"/>
            <rect id="Capacity" width="18" height="7.333" rx="1.333" transform="translate(2.333 2.333)"/>
          </g>
          <path id="Wifi" d="M7.445,10.907,5.439,8.885a.309.309,0,0,1-.094-.231.314.314,0,0,1,.1-.227,3.437,3.437,0,0,1,4.437,0,.315.315,0,0,1,.009.458L7.889,10.907a.313.313,0,0,1-.445,0Zm3.53-3.542a4.928,4.928,0,0,0-6.612,0,.311.311,0,0,1-.435-.005L2.768,6.189a.322.322,0,0,1,0-.46,7.193,7.193,0,0,1,9.791,0,.322.322,0,0,1,0,.46L11.409,7.36a.311.311,0,0,1-.435.005Zm2.669-2.7a8.68,8.68,0,0,0-11.955,0,.308.308,0,0,1-.435,0L.094,3.5a.323.323,0,0,1,0-.457,10.947,10.947,0,0,1,15.141,0,.323.323,0,0,1,0,.457l-1.161,1.17a.308.308,0,0,1-.435,0Z" transform="translate(316 17.331)"/>
          <path id="Cellular_Connection" data-name="Cellular Connection" d="M15,10.667a1,1,0,0,1-1-1V1a1,1,0,0,1,1-1h1a1,1,0,0,1,1,1V9.667a1,1,0,0,1-1,1Zm-4.667,0a1,1,0,0,1-1-1V3.334a1,1,0,0,1,1-1h1a1,1,0,0,1,1,1V9.667a1,1,0,0,1-1,1Zm-4.667,0a1,1,0,0,1-1-1v-4a1,1,0,0,1,1-1h1a1,1,0,0,1,1,1v4a1,1,0,0,1-1,1ZM1,10.667a1,1,0,0,1-1-1v-2a1,1,0,0,1,1-1H2a1,1,0,0,1,1,1v2a1,1,0,0,1-1,1Z" transform="translate(294 17.667)"/>
          <g id="Time_Style" data-name="Time Style" transform="translate(21.5 13)">
            <g id="Time_-_Light" data-name="Time - Light">
              <rect id="Time_-_Light_background" data-name="Time - Light background" width="54" height="21" fill="none"/>
              <text id="Time" transform="translate(0 2)" font-size="15" font-family="SegoeUI, Segoe UI" letter-spacing="-0.02em"><tspan x="13.695" y="16">9:41</tspan></text>
            </g>
          </g>
          <g id="Time_-_Light-2" data-name="Time - Light" transform="translate(22 13)">
            <g id="Time_-_Light-3" data-name="Time - Light">
              <rect id="Time_-_Light_background-2" data-name="Time - Light background" width="54" height="21" fill="none"/>
              <text id="Time-2" data-name="Time" transform="translate(0 2)" font-size="15" font-family="SegoeUI, Segoe UI" letter-spacing="-0.02em"><tspan x="13.695" y="16">9:41</tspan></text>
            </g>
          </g>
        </g>
      </g>
    </g>
  </g>
</svg>
