<svg xmlns="http://www.w3.org/2000/svg" width="26" height="26" viewBox="0 0 26 26">
  <g id="plan_icon" data-name="plan icon" transform="translate(-102 -744)">
    <g id="icon" transform="translate(2.625 3)">
      <path id="Icon_awesome-calendar" data-name="Icon awesome-calendar" d="M.469,7.5H17.031a.47.47,0,0,1,.469.469V18.125A1.875,1.875,0,0,1,15.625,20H1.875A1.875,1.875,0,0,1,0,18.125V7.969A.47.47,0,0,1,.469,7.5ZM17.5,5.781V4.375A1.875,1.875,0,0,0,15.625,2.5H13.75V.469A.47.47,0,0,0,13.281,0H11.719a.47.47,0,0,0-.469.469V2.5h-5V.469A.47.47,0,0,0,5.781,0H4.219A.47.47,0,0,0,3.75.469V2.5H1.875A1.875,1.875,0,0,0,0,4.375V5.781a.47.47,0,0,0,.469.469H17.031A.47.47,0,0,0,17.5,5.781Z" transform="translate(103.625 744)" fill="#767680"/>
      <path id="Icon_metro-money" data-name="Icon metro-money" d="M13.126,9.938c-1.009-.262-1.333-.531-1.333-.953,0-.484.447-.824,1.2-.824.791,0,1.084.378,1.111.933h.982A1.769,1.769,0,0,0,13.659,7.4V6.427H12.326v.96a1.734,1.734,0,0,0-1.556,1.6c0,1.027.851,1.538,2.089,1.836,1.113.267,1.333.656,1.333,1.073,0,.3-.216.793-1.2.793-.916,0-1.278-.411-1.324-.933h-.98a1.866,1.866,0,0,0,1.638,1.7v.964h1.333v-.956c.864-.167,1.556-.667,1.556-1.58,0-1.258-1.08-1.689-2.089-1.953Z" transform="translate(99.424 746.018)" fill="#fff"/>
    </g>
    <rect id="Rectangle_4" data-name="Rectangle 4" width="26" height="26" transform="translate(102 744)" fill="none"/>
  </g>
</svg>
